<?xml version="1.0" encoding="utf-8"?>
<svg viewBox="0 0 500 500" xmlns="http://www.w3.org/2000/svg">
  <path d="M 433.268 6.354 C 403.798 6.354 379.401 29.412 375.315 59.3 L 341.146 59.3 L 341.146 94.597 C 341.146 99.467 337.403 103.421 332.771 103.421 C 328.141 103.421 324.396 99.467 324.396 94.597 L 324.396 59.3 L 307.646 59.3 L 307.646 112.245 C 307.646 117.117 303.903 121.07 299.271 121.07 C 294.64 121.07 290.896 117.117 290.896 112.245 L 290.896 59.3 L 122.733 59.3 C 118.646 29.412 94.25 6.354 64.78 6.354 C 32.461 6.354 6.156 34.063 6.156 68.124 L 6.156 429.922 C 6.156 463.984 32.461 491.692 64.78 491.692 L 148.527 491.692 L 148.527 438.747 C 148.527 433.876 152.27 429.922 156.901 429.922 C 161.532 429.922 165.276 433.876 165.276 438.747 L 165.276 491.692 L 182.027 491.692 L 182.027 465.219 C 182.027 460.349 185.77 456.396 190.402 456.396 C 195.031 456.396 198.775 460.349 198.775 465.219 L 198.775 491.692 L 433.268 491.692 C 465.585 491.692 491.89 463.984 491.89 429.922 L 491.89 68.124 C 491.89 34.063 465.585 6.354 433.268 6.354 Z M 106.655 386.727 C 96.009 375.274 81.169 368.151 64.78 368.151 C 48.39 368.151 33.551 375.274 22.907 386.727 L 22.907 68.124 C 22.907 43.796 41.69 24.004 64.78 24.004 C 87.869 24.004 106.655 43.796 106.655 68.124 L 106.655 386.727 Z M 162.822 215.552 L 150.982 203.075 L 170.183 182.841 L 150.982 162.606 L 162.822 150.129 L 182.027 170.362 L 201.228 150.129 L 213.071 162.606 L 193.868 182.841 L 213.071 203.075 L 201.228 215.552 L 182.027 195.318 L 162.822 215.552 Z M 185.192 257.502 C 181.624 257.502 178.333 255.095 177.202 251.327 C 174.848 243.438 173.651 235.24 173.651 226.962 C 173.651 222.091 177.395 218.137 182.027 218.137 C 186.659 218.137 190.402 222.091 190.402 226.962 C 190.402 233.44 191.331 239.855 193.181 246.031 C 194.572 250.682 192.118 255.631 187.704 257.096 C 186.867 257.372 186.019 257.502 185.192 257.502 Z M 226.528 297.628 C 224.954 300.389 222.184 301.915 219.344 301.915 C 217.878 301.915 216.387 301.51 215.04 300.655 C 206.112 295.007 198.332 287.982 191.933 279.777 C 188.993 276.009 189.513 270.448 193.088 267.35 C 196.689 264.255 201.957 264.811 204.872 268.569 C 210.056 275.213 216.37 280.914 223.657 285.52 C 227.626 288.027 228.916 293.453 226.528 297.628 Z M 294.373 312.365 C 293.243 316.132 289.95 318.542 286.383 318.542 C 285.545 318.542 284.708 318.409 283.872 318.135 C 278.008 316.194 271.921 315.205 265.774 315.205 C 258.111 315.205 250.481 314.296 243.087 312.514 C 238.581 311.429 235.767 306.69 236.797 301.942 C 237.835 297.186 242.307 294.185 246.83 295.315 C 252.993 296.806 259.358 297.557 265.774 297.557 C 273.63 297.557 281.41 298.819 288.896 301.298 C 293.309 302.763 295.763 307.713 294.373 312.365 Z M 321.357 350.248 C 316.992 342.58 311.574 335.915 305.269 330.455 C 301.692 327.357 301.183 321.796 304.113 318.029 C 307.053 314.28 312.32 313.722 315.895 316.82 C 323.701 323.58 330.368 331.769 335.711 341.167 C 338.087 345.351 336.808 350.768 332.837 353.272 C 331.489 354.13 329.999 354.536 328.533 354.536 C 325.693 354.536 322.923 353.009 321.357 350.248 Z M 341.146 403.448 C 336.514 403.448 332.771 399.494 332.771 394.625 C 332.771 387.848 332.059 381.141 330.645 374.673 C 329.606 369.916 332.42 365.186 336.933 364.092 C 341.439 363.016 345.928 365.962 346.966 370.711 C 348.658 378.477 349.521 386.525 349.521 394.625 C 349.521 399.494 345.778 403.448 341.146 403.448 Z M 475.142 386.727 C 464.498 375.274 449.657 368.151 433.268 368.151 C 416.879 368.151 402.038 375.274 391.395 386.727 L 391.395 68.124 C 391.395 43.796 410.179 24.004 433.268 24.004 C 456.356 24.004 475.142 43.796 475.142 68.124 L 475.142 386.727 Z" style="fill: rgb(255, 255, 255);"/>
  <g transform="matrix(1, 0, 0, 1, 205.374985, 211.885422)"/>
  <g transform="matrix(1, 0, 0, 1, 205.374985, 211.885422)"/>
  <g transform="matrix(1, 0, 0, 1, 205.374985, 211.885422)"/>
  <g transform="matrix(1, 0, 0, 1, 205.374985, 211.885422)"/>
  <g transform="matrix(1, 0, 0, 1, 205.374985, 211.885422)"/>
  <g transform="matrix(1, 0, 0, 1, 205.374985, 211.885422)"/>
  <g transform="matrix(1, 0, 0, 1, 205.374985, 211.885422)"/>
  <g transform="matrix(1, 0, 0, 1, 205.374985, 211.885422)"/>
  <g transform="matrix(1, 0, 0, 1, 205.374985, 211.885422)"/>
  <g transform="matrix(1, 0, 0, 1, 205.374985, 211.885422)"/>
  <g transform="matrix(1, 0, 0, 1, 205.374985, 211.885422)"/>
  <g transform="matrix(1, 0, 0, 1, 205.374985, 211.885422)"/>
  <g transform="matrix(1, 0, 0, 1, 205.374985, 211.885422)"/>
  <g transform="matrix(1, 0, 0, 1, 205.374985, 211.885422)"/>
  <g transform="matrix(1, 0, 0, 1, 205.374985, 211.885422)"/>
</svg>